<svg width="24" height="24" viewBox="0 0 24 24" fill="none" xmlns="http://www.w3.org/2000/svg">
<g id="Close">
<path id="Vector 3 (Stroke)" fill-rule="evenodd" clip-rule="evenodd" d="M6.25108 6.25105C6.58581 5.91632 7.12852 5.91632 7.46326 6.25105L12 10.7878L16.5367 6.25108C16.8715 5.91634 17.4142 5.91634 17.7489 6.25108C18.0837 6.58581 18.0837 7.12852 17.7489 7.46326L13.2122 12L17.7489 16.5367C18.0837 16.8715 18.0837 17.4142 17.7489 17.7489C17.4142 18.0837 16.8715 18.0837 16.5368 17.7489L12 13.2122L7.46323 17.7489C7.1285 18.0837 6.58579 18.0837 6.25105 17.7489C5.91632 17.4142 5.91632 16.8715 6.25105 16.5368L10.7878 12L6.25108 7.46323C5.91634 7.1285 5.91634 6.58579 6.25108 6.25105Z" fill="#1F2429"/>
</g>
</svg>
